<?xml version='1.0' encoding='utf-8'?>
<svg xmlns="http://www.w3.org/2000/svg" version="1.1" id="Layer_1" x="0px" y="0px" viewBox="0 0 3768.576 4997.488" enable-background="new 0 0 3768.576 4997.488"> <g> <path fill="#090708" d="M3764.715,1345.55c-86.202-41.413-374.733-71.554-391.671-75.834 c-18.309-80.795-11.543-87.599-19.661-142.183c-4.628-25.515-9.737-50.969-13.746-76.542 c110.369-11.051,221.323-14.455,331.932-22.648c4.775-0.354,8.641-4.031,9.239-8.782l0.027-0.212 c0.719-5.712-3.498-10.911-9.24-11.329c-112.944-8.226-226.355,1.263-338.819,11.864c-9.053-35.121-17.417-70.436-28.4-104.973 c-23.162-55.522-39.764-113.81-69.763-166.435c-134.311-228.879-156.69-125.191-155.373-249.784 c5.122-153.548,2.579-260.376-25.632-350.009c-25.571-55.016-68.88-107.051-129.324-124.011 c-102.296-22.9-207.885,9.397-296.26,60.847c-20.798,12.108-41.325,24.842-61.696,37.654 c-20.032,12.599-40.234,25.468-58.411,40.608c-14.391,11.986-32.858,18.525-51.399,20.07c-24.116,2.01-45.802-5.655-68.779-10.92 c-24.162-5.536-48.553-10.046-73.055-13.783c-49.139-7.495-98.695-11.886-148.277-15.147c-14.552-0.957-29.11-1.816-43.67-2.626 c-101.17-5.629-202.644-6.691-303.931-4.206c-63.298,1.553-126.736,4.186-189.753,10.573 c-361.121,33.28-94.197,75.217-447.145-88.631c-136.173-47.359-297.007-108.884-390.631,8.126 c-91.382,107.141-72.471,428.746-56.281,569.327c3.901,20.017-15.523,33.115-25.313,48.095 c-21.099,26.574-34.066,58.568-55.572,84.929c-39.577,47.239-89.163,156.331-97.414,172.635 c-145.307-23.256-292.139-46.143-439.687-40.791c-4.955,0.18-9.14,3.779-10.089,8.646l-0.041,0.211 c-1.128,5.783,2.608,11.423,8.4,12.504c72.003,13.428,227.585,14.203,428.722,47.59c-24.27,70.736-46.63,142.123-60.802,215.641 c-156.37,10.31-282.702,0.957-476.052,34.954c-4.207,0.74-7.281,4.485-7.141,8.932c0.145,4.594,3.838,8.266,8.435,8.314 c87.109,0.904,315.132-20.507,469.31-22.817c-5.562,51.594-8.113,103.445-10.868,155.225 c-104.916,18.766-209.444,41.363-310.628,75.217c-4.969,1.663-8.007,6.709-7.187,11.885l0.035,0.221 c0.923,5.827,6.396,9.864,12.227,8.964c103.521-15.99,204.547-46.559,308.428-60.725c3.851,117.159,39.026,230.683,87.221,336.688 c82.18,129.538,157.693,213.213,313.252,293.193c-106.115,187.856-82.657,348.456-258.098,706.273 c-28.049,83.123-293.046,488.74-289.834,1110.536c33.323,731.754,367.979,925.031,1071.77,967.235 c-7.43,29.006-14.518,61.926,1.937,89.361c26.859,47.978,91.219,64.389,141.239,46.203c56.616-26.941,25.973-29.606,66.527,6.235 c56.702,48.212,116.556,51.498,185.233-15.551c67.01,51.386,144.387,43.35,194.249-41.17 c59.062,58.784,83.117,49.082,133.995,21.398c30.626,38.084,69.581,66.378,121.319,56.517c39.049-7.443,64.214-36.31,83.943-68.84 c27.679,32.361,71.529,41.627,111.819,46.718c43.704,5.522,91.469-14.961,123.354-44.726 c41.96-39.168,41.741-84.407,24.245-135.877c455.46-30.729,856.037-118.051,1027.799-543.319 c161.312-408.833,148.907-929.477-91.371-1418.558c-167.637-326.041-184.498-327.408-290.052-636.455 c-60.553-188.828-53.188-160.045-103.488-260.944c220.686-193.119,202.884-368.71,226.385-377.968 c246.999,64.043,237.716,77.594,249.286,57.666c1.045-1.8,1.238-3.971,0.527-5.927c-0.711-1.956-2.253-3.495-4.209-4.206 c-84.268-30.636-93.17-38.392-242.797-82.653c5.681-62.385,15.479-152.424,18.338-206.167c0.101-1.902,68.144,4.607,74.316,5.359 c46.979,5.724,93.911,17.089,140.633,25.428c55.006,12.003,111.32,19.151,166.527,29.644c6.35,1.207,12.618-2.564,14.485-8.787 C3769.245,1350.37,3767.66,1346.966,3764.715,1345.55z M908.894,4706.83c-400.44-122.749-544.464-461.263-545.487-880.033 c175.261,64.759,357.129,112.425,542.867,134.657c59.608,183.274,113.138,353.648,359.315,709.852 c24.381,36.76,55.854,67.816,83.849,101.76C1201.086,4765.128,1051.548,4750.521,908.894,4706.83z M1815.589,4907.891 c-8.842-11.877-11.032-35.635-30.548-33.028c-15.412-0.749-18.523,16.473-23.853,27.28c-13.66,40.278-65.357,64.192-103.949,44.323 c-60.98-29.157-33.305-84.47-64.478-88.259c-16.659-3.924-23.419,14.193-32.576,24.248c-21.433,29.996-60.074,52.219-97.535,42.104 c-37.149-8.327-59.515-58.419-36.135-89.958c7.137-12.215,27.049-21.876,16.291-37.833 c-32.055-12.593-24.296,23.173-129.262-131.482c-86.324-124.578-225.756-354.02-249.777-414.524 c283.082,57.866,580.362,60.313,860.609-13.977c33.349,351.744,18.212,509.907,32.877,610.439 C1945.266,4941.602,1850.615,4957.332,1815.589,4907.891z M2504.282,4759.219c14.213,18.347,37.813,29.179,46.049,52.22 c16.347,33.535-4.089,73.214-33.682,91.55c-60.579,41.858-152.945,19.542-188.846-44.498c-6.553-17.322-23.934-19.133-38.15-9.852 c-2.747,23.809-3.081,50.813-21.357,68.867c-41.85,52.857-128.186,22.676-125.633-60.533c1.766-18.685-26.394-23.563-35.145-9.183 c-7.301,17.628-8.577,39.681-25.243,51.936c-16.296,14.523-41.4,7.435-54.572-7.74c-59.175-59.855-20.305-102.999-63.426-659.098 c313.991,22.223,568.795,26.967,860.113-64.099c-52.937,122.596-222.091,445.642-292.019,548.416 C2523.953,4732.004,2501.195,4739.696,2504.282,4759.219z M2572.059,4737.025c82.453-132.449,154.252-271.185,225.366-409.933 c66.813-127.992,116.63-264.163,156.957-402.557c351.048-59.397,467.228-92.556,716.49-170.124 C3621.358,4539.187,3200.236,4699.168,2572.059,4737.025z M3250.396,2377.412c57.926,135.159,128.276,263.302,195.087,394.154 c75.922,148.695,142.269,302.285,181.567,465.037c19.003,78.7,31.946,158.83,39.433,239.433c3.746,40.325,6.123,80.776,7.2,121.259 c0.262,9.869,6.083,114.995-0.327,116.85c-536.124,155.125-514.292,122.78-705.242,165.933c1.361-0.308,6.435-36.367,7.055-39.326 c4.631-22.105,9.458-44.167,13.815-66.329c12.64-64.302,23.292-132.232,20.715-197.799c-0.211-5.377-4.409-10.147-9.79-10.228 c-7.635-0.115-14.065,5.611-14.865,13.169c-19.756,186.667-74.724,369.348-142.379,543.682 c-2.542,6.549-58.613,16.388-67.29,18.944c-23.312,6.867-46.608,13.81-70.133,19.92c-46.211,12.003-93.338,18.395-140.656,24.417 c-100.019,12.729-200.863,18.985-301.689,18.706c-89.262-0.247-178.384-8.021-267.484-12.453 c-52.082-2.573-24.735,21.787-67.345-324.618c-2.419-19.401-3.897-39.318-10.539-57.68c-2.809-7.765-10.417-12.75-18.651-12.113 l-0.29,0.022c-9.564,0.741-17.016,8.711-16.908,18.304c0.885,78.075,44.302,335.307,34.457,385.464 c-97.806,12.806-193.453,33.196-292.145,40.966c-100,7.873-200.573,8.479-300.66,1.783 c-54.344-3.636-108.101-11.223-161.771-20.725c-34.91-6.182-69.495-13.574-104.312-20.22 c-28.466-3.034-30.795-38.448-42.849-58.814c-76.03-161.03-124.966-333.643-153.537-509.1c-0.873-5.362-5.317-9.396-10.74-9.713 l-0.241-0.014c-6.753-0.394-12.403,4.995-12.33,11.759c0.794,73.43,48.482,238.31,50.762,276.031 c-457.571-91.045-449.388-120.118-520.839-135.918c-24.083-91.674,60.337-634.647,224.953-896.817 c21.083-55.066,106.145-198.558,156.281-348.136c58.931-169.396,57.338-239.529,147.857-482.103 c61.276,20.014,120.486,44.479,183.245,60.168c110.262,27.563,227.446,33.08,340.285,36.432c82.016,2.436,164.07,2.295,246.071-0.6 l306.929-10.839c86.684-3.061,174.443,1.778,261.464,2.582c165.225,1.526,332.39-0.364,494.531-35.759 c63.517-13.865,125.922-32.948,185.861-58.195c15.883-6.69,181.411-89.657,176.495-97.318 C3135.304,2005.233,3201.302,2262.86,3250.396,2377.412z M3313.297,1495.59c-289.369-76.558-597.604-138.961-656.403-145.989 c-1.718-0.205-3.427,0.446-4.572,1.742c-1.145,1.296-1.58,3.073-1.164,4.752c0.007,0.03,0.015,0.06,0.022,0.09 c0.606,2.451,2.538,4.355,4.998,4.926c40.287,9.359,350.341,73.848,651.164,169.269 c-54.526,298.787-288.93,468.043-586.746,533.193c-287.749,63.904-438.424,6.582-997.87,46.201 c-392.722,25.332-847.855,8.054-1079.513-307.596c-85.922-116.535-130.229-260.657-137.112-404.4 c180.442-39.462,489.497-59.649,587.512-66.117c6.695-0.442,12.803-4.727,14.707-11.161c2.121-7.167-7.732-4.862-82.091-5.232 c-238.997,3.016-434.826,36.575-521.318,48.624c0.541-50.653,2.939-101.616,13.268-151.343 c405.085-3.155,581.644,22.825,678.222,21.152c2.844-0.049,5.198-2.237,5.445-5.072c0.334-3.824-2.272-7.282-6.04-8.015 c-179.448-34.951-539.115-34.978-674.017-34.19c14.756-71.657,38.112-141.175,66.164-208.623 c327.374,52.348,519.51,118.817,584.178,135.829c8.463,2.226,12.385-10.454,4.062-13.156c-0.285-0.093-0.576-0.181-0.872-0.264 c-187.202-64.076-379.172-114.181-573.867-149.663c34.673-78.547,126.669-241.915,174.06-294.491 c4.948-19.181-29.874-178.462-6.295-416.993c38.833-388.875,477.432-105.111,598.442-31.877 c16.655,10.079,36.242,14.025,55.49,11.106c107.645-16.326,467.875-79.756,825.243-24.227 c68.846,10.8,137.415,25.707,207.301,28.024c77.396,6.072,204.399-161.788,393.164-165.004 c153.218-7.166,195.056,123.339,191.649,276.674c-1.654,75.107-12.854,151.213,1.064,225.77 c2.2,32.402,199.823,183.245,249.623,466.555c-227.784,29.242-453.374,80.511-669.805,157.169 c-2.031,0.719-3.514,2.464-3.882,4.586l-0.022,0.129c-0.737,4.248,3.1,7.87,7.272,6.79 c58.411-15.118,324.57-105.834,674.106-140.639c14.961,69.776,23.52,141.086,26.045,212.427 c-165.931-17.776-536.264-45.769-710.356-16.195c-6.18,1.05-11.081,6.728-9.9,12.884c1.864,9.716,21.38,4.485,175.598,2.647 c187.773-4.921,438.486,12.534,545.7,27.35C3326.891,1360.911,3323.651,1428.724,3313.297,1495.59z"/> <path fill="#090708" d="M2649.756,344.693c41.382-49.597,85.74-96.88,136.285-137.336c11.668-8.64-1.361-24.155-12.225-14.473 c-39.439,23.47-177.899,122.146-160.863,151.166C2619.262,359.654,2641.83,358.882,2649.756,344.693z"/> <path fill="#090708" d="M1243.785,343.323c-33.749-38.157-71.817-72.345-108.285-107.876c-6.314-7.445-15.801-9.873-25.107-10.858 c0.135,39.619,65.121,105.666,93.652,133.192C1217.759,373.376,1239.782,360.598,1243.785,343.323z"/> <path fill="#090708" d="M1277.308,936.429c111.091,12.825,215.135,93.827,282.396,132.552c7.122,4.101,16.556-1.865,14.825-9.899 c-0.373-1.729-1.243-3.394-2.844-4.947c-70.908-94.286-308.803-210.92-394.348-138.134c-4.26,3.625-7.588,8.471-8.322,14.016 C1165.481,956.721,1227.142,930.345,1277.308,936.429z"/> <path fill="#090708" d="M2579.84,988.232c43.252-3.564,86.714,0.417,129.957-2.599c12.567,2.687,16.335-20.693,2.43-21.347 c-148.359-54.894-363.204,26.062-397.417,107.695c-3.334,7.954,4.11,16.548,12.33,13.937 C2371.786,1071.733,2417.794,997.924,2579.84,988.232z"/> <path fill="#090708" d="M1451.514,1560.441c-56.321-25.389-96.299-83.673-97.822-145.673c-1.849-23.684,5.131-46.528,9.986-69.409 c6.96-17.771-23.93-31.199-31.237-13.159c-28.976,73.328-14.951,165.299,43.033,221.018 c99.195,101.574,315.842,58.631,406.532-27.525c59.27-53.261,93.865-126.422,128.884-196.422 c151.626,498.25,643.803,264.348,558.866,42.867c-4.297-13.032-22.939-9.381-28.325,0.671 c-3.676,25.748,13.507,101.54-68.681,164.362c-101.367,75.018-250.412,65.271-335.921-43.157 c-47.583-58.554-73.475-130.509-99.679-200.275c-16.3-36.276-8.321-77.064-6.967-115.363c6.885-13.454,18.648-23.6,28.307-35.017 c20.876-25.55,62.748-12.89,82.354-40.381c19.425-21.051,19.777-56.898-0.153-77.676c-16.557-17.634-41.859-21.228-64.631-24.506 c-198.071-22.102-212.902,65.705-183.608,103.124c24.41,33.502,58.695-7.554,102.761,74.805 c-0.897,39.609,0.254,79.734-4.204,119.075c-37.011,85.939-87.037,171.239-165.183,225.816 C1658.027,1571.646,1527.648,1594.554,1451.514,1560.441z M1879.469,1106.81c-17.417-11.547-39.884-8.717-58.161-18.085 c-31.568-20.382,15.158-56.861,60.011-60.378c42.623-2.889,88.668-5.445,128.168,13.48c17.777,6.617,24.929,32.861,9.56,45.345 c-18.929,8.307-40.25,8.346-59.439,15.827c-25.2,9.66-34.412,47.288-51.806,38.035 C1897.848,1130.028,1891.932,1115.459,1879.469,1106.81z"/> </g> </svg>