<?xml version="1.0" encoding="UTF-8"?>
<svg version="1.1" viewBox="0 0 553.39 435.79" xmlns="http://www.w3.org/2000/svg">
 <g transform="translate(-100.82 -278.88)">
  <path d="m425.88 708.77c-10.198-1.1824-26.796-5.2964-35.615-8.8276-13.731-5.4981-26.454-15.31-30.833-23.777-1.954-3.3959-4.6014-5.588-7.5304-8.0526l-23.339 0.53092c-42.947 0.97694-70.046-4.1162-98.011-18.42-24.788-12.679-34.198-21.773-45.447-45.777-6.169-13.164-5.6265-41.858-1.5937-59.377 3.6881-16.021 4.4001-17.286 2.6272-6.2077-9.3582 58.473 25.134 101.27 84.017 113.93 18.15 3.9048 45.575 5.6608 64.403 4.1238 44.569-3.6383 82.781-21.341 114.28-52.941 33.414-33.522 44.999-68.647 31.173-94.514-3.7424-7.0018-16.274-21.824-33.116-27.848l-13.394-4.7906 14.716 0.16084c12.543 4.8374 27.045 9.6539 36.587 24.583 10.653 16.668 12.272 28.407 8.2199 51.644-4.4143 25.313-11.625 38.285-35.948 61.736-21.753 20.972-51.398 38.146-80.228 46.475-4.707 1.36-9.1208 3.2318-9.8083 4.1597-2.4326 3.2831-1.4505 6.4388 3.3853 10.879 5.9054 5.4218 12.151 8.8049 23.068 12.495 15.461 5.2262 24.312 6.3514 49.797 6.3306 21.712-0.0177 23.55-0.1672 32.818-2.6686 12.322-3.3257 25.232-8.0284 33.792-12.309 9.9076-4.9547 26.238-16.261 36.595-25.336 37.139-32.542 74.305-98.204 81.823-144.56 1.9372-11.944 1.9087-30.435-0.0586-37.988-2.4892-9.5566-7.2561-17.354-15.955-26.097-19.756-19.856-45.113-30.241-61.706-25.269-6.0839 1.8228-11.464 7.8496-12.814 14.355-1.9392 9.3409 1.2692 18.432 11.748 33.287 2.451 3.4748 4.1989 6.5753 3.8841 6.8901-0.97654 0.97654-11.07-6.5595-18.306-13.668-3.9449-3.8752-8.3832-9.5128-10.36-13.16-3.289-6.0672-3.4587-6.8708-3.4587-16.38 0-8.3905 0.35412-10.662 2.2002-14.113 3.1157-5.8238 11.399-12.899 18.098-15.458 8.6248-3.2952 22.297-3.7229 33.492-1.0479 26.019 6.2171 54.943 28.372 66.481 50.923 6.525 12.753 7.7177 18.407 7.6354 36.195-0.0617 13.32-0.51167 17.61-3.1992 30.5-6.8861 33.028-18.292 58.674-42.696 96-16.276 24.895-35.56 46.421-53.512 59.734-16.43 12.185-39.208 23.392-59.365 29.209-17.159 4.9517-44.123 6.8058-64.545 4.4381zm-155.3-110.85c-19.299-12.084-26.53-17.697-33.29-25.841-12.641-15.227-15.885-32.492-7.4405-39.597 4.5509-3.8293 10.036-4.9225 21.436-4.2721 18.832 1.0745 37.41 7.3984 50.23 17.098 7.7248 5.8448 23.588 22.617 25.8 27.278 3.0193 6.3626-1.7339 11.983-7.7975 9.2203-1.3104-0.59707-7.6405-6.6442-14.067-13.438-12.311-13.015-19.113-18.014-29.345-21.565-7.1978-2.4983-16.711-4.5275-25.535-5.4465-6.5485-0.68207-6.7892-0.62438-9.75 2.3364-3.8754 3.8754-3.8165 6.1169 0.39179 14.898 4.1768 8.7154 12.492 17.633 28.496 30.563 11.403 9.2123 17.617 15.664 16.937 17.584-0.19802 0.55858-7.4272-3.4096-16.065-8.8181zm131.86-12.866c-2.5355-2.8016-1.9942-7.909 1.8328-17.296 5.758-14.123 6.9287-32.375 2.9383-45.812-2.5383-8.5474-8.8535-11.349-15.355-6.813-8.3748 5.8436-26.874 37.988-31.077 54-1.2633 4.8125-2.6576 8.75-3.0985 8.75-1.2711 0-2.8839-7.0259-2.89-12.59-0.0127-11.601 7.7384-31.768 18.893-49.157 8.6248-13.445 16.349-19.253 25.609-19.253 11.23 0 20.371 9.728 24.051 25.595 1.8781 8.0982 2.1108 27.854 0.42421 36.021-1.9494 9.44-6.9344 22.121-9.9756 25.377-3.3335 3.5686-8.6861 4.1243-11.352 1.1786zm-207.11-47.296c-1.0553 4.2211-10.366-8.6569-11.591-15.09-0.69654-3.6562-0.66352-7.5804 0.1075-12.777 2.4425-16.462 9.607-25.065 20.947-25.153 10.346-0.0801 16.026 4.0276 15.953 11.538l-0.04 4.1151-1.5816-3c-3.7886-7.1865-9.0932-10.021-15.886-8.4893-8.1498 1.8381-12.754 9.9522-12.751 22.473 2e-3 6.8285 0.47523 9.0944 3.1956 15.288 1.7566 3.9994 2.9217 7.7119 2.5891 8.25-0.99193 1.605-0.0734-0.63176-0.94246 2.8446zm-30.729-26.589s5.292-14.177 17.469-22.183c4.6402-3.0506 11.174-10.845 27.056-15.876-9.3512 8.7978-15.857 13.356-23.735 20.094-6.9599 5.953-20.789 17.965-20.789 17.965zm-9.4391-11.607c-2.1625 2.3006 4.9947-13.31 9.4681-19.25 8.2215-10.917 15.105-15.415 24.358-20.063 2.7764-1.3945 5.3356-2.5355 5.687-2.5355 0.35145 0-2.9859 3.1995-7.4164 7.11-9.9452 8.7779-15.126 14.411-24.307 27.238-3.8382 5.3625-7.1611 9.75-7.3843 9.75-0.22315 0 0.44265-3.1517-0.40493-2.25zm262.69-16.545c-0.55184-1.0311-1.2955-3.8436-1.6526-6.25-0.85585-5.7672-4.2452-11.543-9.7531-16.62-5.3483-4.9299-10.629-6.6552-15.909-5.1975-7.1691 1.9795-9.9571 7.2346-6.7352 12.695 1.1354 1.9243 1.835 3.728 1.5549 4.0081-1.0222 1.0222-5.2986-2.6877-6.5328-5.6674-4.9002-11.83 12.605-22.56 26.461-16.22 9.5685 4.3788 22.5 19.934 22.5 27.065 0 6.2955-7.406 10.907-9.933 6.1856zm-171.57-1.103c-5.738-1.8976-12.565-6.2709-11.489-7.3599 0.28088-0.28435 2.9809 0.33563 6 1.3777 6.128 2.1152 18.166 2.5951 22.674 0.90411 4.6047-1.7271 10.354-6.1192 11.885-9.0787 2.0098-3.8866 1.8756-12.251-0.22449-13.993-0.9102-0.75484-2.284-2.8775-3.053-4.7171-1.2312-2.9455-1.2035-3.6417 0.23268-5.8335 0.89692-1.3689 3.1267-3.1139 4.9551-3.8779 9.1386-3.8184 17.069-2.3617 19.533 3.588 1.2173 2.9388 1.1212 3.9375-0.9286 9.653-3.0289 8.4456-2.3764 10.841 3.7027 13.596 6.7487 3.0575 21.883 3.0215 31.896-0.0758 13.064-4.041 18.974-10.757 21.519-24.455 0.68968-3.7125 1.7479-6.75 2.3516-6.75s2.113 1.0808 3.3539 2.4017c5.1976 5.5326 3.0657 18.075-4.5033 26.493-8.3667 9.3058-21.888 14.269-38.992 14.313-9.8221 0.0253-20.154-1.951-23.171-4.4321-2.2587-1.8576-9.8616-0.244-13.935 2.9574-6.5639 5.159-10.319 6.5822-18.307 6.9384-5.5145 0.24585-9.0884-0.19091-13.5-1.6498zm-117.17-68c-8.3551-31.841-9.926-83.775-3.3441-98.699 3.5972-8.1567 6.7209-8.1827 26.406-0.21918 32.752 13.25 57.673 27.328 63.341 35.782 3.5547 5.3019 2.7433 5.4584-3.4719 0.66973-3.1625-2.4367-12.5-7.7807-20.75-11.876-14.612-7.2528-47.719-20.692-50.975-20.692-3.3548 0-7.2558 2.902-7.8422 5.8339-2.594 12.97-2.1907 43.31 0.56567 64.701 2.7418 21.277 7.0659 41.088 15.771 62.398-5.2922-5.2637-16.087-24.127-19.7-37.899zm272.74 22.181c-6.8199-0.3227-21.607-0.62912-20.435-1.394 7.7254-5.0419 22.906-4.6274 34.437-3.9161 9.0639 0.55906 21.717 1.3108 26.485 6.3814-14.581-0.0653-27.002-0.4332-40.488-1.0713zm-194.95-1.7768c-3.2633-2.7459-4.7752-7.656-3.6895-11.982 1.1418-4.5495 6.6209-9.5196 11.167-10.129 11.825-1.5861 17.707 12.577 8.886 21.398-4.7954 4.3881-11.906 4.3942-16.363 0.71362zm122.99-17.704c-4.121-2.1178-6.3628-6.1004-6.262-11.124 0.16244-8.0926 4.9125-13.611 11.716-13.611 4.139 0 9.0002 5.5118 9.8476 11.166 1.609 10.735-6.6191 18.032-15.302 13.57zm53.862 0.10298c0-5.093 27.466-5.5662 38.159-4.6278 8.0169 0.70354 15.885 2.5135 18.161 4.1776 1.5631 1.143-2.4738 1.3252-26.388 1.1908-15.528-0.0873-29.932 0.24673-29.932-0.74058zm-146.6-35.95c-0.59242-1.5006-1.7526-5.3256-2.5781-8.5-1.3183-5.7229-1.6313-15.58 2.026-17.693 3.6096-1.9318 6.7164-0.14014 11.941 6.8862 5.9552 8.0086 8.2231 9.1233 11.738 10.006 5.7167 1.4348 11.383-4.1423 12.903-12.701 0.76345-4.2976 3.575-7.1373 7.0665-7.1373 3.5526 0 5.2561 1.7239 8.5805 8.6831 1.594 3.3368 2.9538 4.401 4.9202 7.1106 3.7937 5.2276 4.2175 8.8175 1.1109 9.41-1.2436 0.23718-3.6472-1.5209-7.164-5.2398-3.5136-3.7156-6.0776-5.5916-7.6285-5.5814-2.9446 0.0193-3.6566 0.5449-7.5939 5.6059-6.2534 8.0381-12.144 8.2793-21.756 0.81506-5.2452-4.0732-6.2606-4.5065-8.3411-3.5585-1.9924 0.9078-2.3801 1.8376-2.4392 5.8508-0.0387 2.6243-0.43909 5.6714-0.88986 6.7714-0.76609 1.8695-0.88989 1.8219-1.8967-0.7283zm169.42 12.663c-0.32022-13.467-0.35158-37.461-12.677-53.951-7.3578-9.8443-17.21-23.794-21.894-31-4.6838-7.2057-9.0126-13.432-9.6194-13.836-0.60685-0.40408-2.7793-0.74158-4.8277-0.75-3.1115-0.0128-4.8449 0.94911-10.534 5.8454-12.624 10.865-23.041 23.637-35.175 43.125-1.8881 3.0326-4.3145 6.6388-5.392 8.0138l-1.9591 2.5 0.63418-3.336c2.8998-15.254 26.353-47.922 43.936-61.198 7.1761-5.4184 8.5571-6.0906 11.523-5.6094 4.3508 0.70603 4.8864 1.1977 10.745 9.8632 2.7074 4.0042 14.696 19.255 21.48 29.28 24.364 39.329 15.922 55.512 13.76 71.053zm-232.89-15.837c-1.865-1.2568-3.5337-3.0265-3.7082-3.9325-0.49662-2.5788 2.9254-3.8635 7.1694-2.6917 3.1627 0.87326 3.5164 1.2605 2.6427 2.893-0.55481 1.0367-1.0087 2.8144-1.0087 3.9506 0 2.6388-0.91215 2.5995-5.0952-0.21943zm16.595-4.2063c-0.55-0.18347-2.2362-0.60618-3.747-0.93936-2.4714-0.545-2.6219-0.81161-1.5-2.6572 1.0951-1.8015 0.89803-2.3328-1.618-4.361-1.5758-1.2703-7.6508-5.161-13.5-8.6462-14.976-8.9234-22.135-13.801-22.135-15.081 0-1.7668 9.476-0.20995 15.496 2.5459 11.103 5.0832 23.022 14.764 28.144 22.861 3.4237 5.4112 3.0146 7.6643-1.14 6.2784zm156.59-14.126c-1.1324-1.4396-1.7716-3.1271-1.4205-3.75 2.9529-5.2376 8.5704-6.403 10.496-2.1775 0.84429 1.853 0.80929 3.2016-0.14276 5.5-1.6638 4.0169-5.9478 4.2219-8.9324 0.42752zm-9.3025-7.403c-1.3154-8.9624 4.3496-24.858 10.061-28.229 1.6303-0.9625 3.2322-1.75 3.5599-1.75 1.9528 0-0.16959 6.4799-5.4043 16.5-3.3 6.3168-6 12.613-6 13.993 0 3.5221-1.6812 3.1329-2.2163-0.51311z"/>
  <path d="m147.76 449.28s2.4672 23.836 9.2955 32.999c6.5745 8.8228 27.887 17.662 27.887 17.662s-17.612-10.608-23.704-18.591c-7.034-9.2186-13.479-32.07-13.479-32.07z" stroke="#000" stroke-linecap="square" stroke-linejoin="round" stroke-width=".5"/>
  <path d="m406.94 390.53s-5.26 24.711-9.1828 36.694c-2.551 7.7924-9.2955 22.774-9.2955 22.774s10.195-13.527 13.014-21.38c4.3334-12.072 5.4646-38.088 5.4646-38.088z" stroke="#000" stroke-linecap="square" stroke-linejoin="round" stroke-width=".5"/>
 </g>
</svg>
