<?xml version="1.0" standalone="no"?><!DOCTYPE svg PUBLIC "-//W3C//DTD SVG 1.1//EN" "http://www.w3.org/Graphics/SVG/1.1/DTD/svg11.dtd"><svg t="1719723698173" class="icon" viewBox="0 0 1024 1024" version="1.1" xmlns="http://www.w3.org/2000/svg" p-id="9616" xmlns:xlink="http://www.w3.org/1999/xlink" width="200" height="200"><path d="M792.868571 613.302857a201.874286 201.874286 0 1 0 201.874286 201.874286 201.874286 201.874286 0 0 0-201.874286-201.874286z m73.142858 301.714286l-73.142858-36.571429-73.142857 36.571429 13.897143-80.822857-58.88-57.417143 81.188572-11.702857 36.571428-73.142857 36.571429 73.142857 81.188571 11.702857-58.88 57.417143zM792.868571 577.462857a239.177143 239.177143 0 0 1 130.194286 38.765714v-126.902857a39.131429 39.131429 0 0 0-40.96-36.571428h-109.714286a39.131429 39.131429 0 0 0-40.96 36.571428V585.142857a246.857143 246.857143 0 0 1 61.44-7.68z" p-id="9617"></path><path d="M555.52 815.177143a236.982857 236.982857 0 0 1 146.285714-219.428572V88.502857a36.571429 36.571429 0 0 0-36.571428-36.571428H137.508571a36.571429 36.571429 0 0 0-36.571428 36.571428v793.965714H51.2v85.942858h560.64a237.348571 237.348571 0 0 1-56.32-153.234286z m-109.714286-580.754286a10.605714 10.605714 0 0 1 10.971429-10.605714h121.417143a10.605714 10.605714 0 0 1 10.605714 10.605714v121.417143a10.605714 10.605714 0 0 1-10.605714 10.971429h-122.514286a10.605714 10.605714 0 0 1-10.971429-10.971429zM358.765714 613.668571a10.605714 10.605714 0 0 1-10.971428 10.971429H226.377143a10.971429 10.971429 0 0 1-10.971429-10.971429v-121.417142a11.337143 11.337143 0 0 1 10.971429-10.971429h121.417143a10.971429 10.971429 0 0 1 10.971428 10.971429z m0-256a10.605714 10.605714 0 0 1-10.971428 10.971429H226.377143a10.971429 10.971429 0 0 1-10.971429-10.971429V234.422857a10.971429 10.971429 0 0 1 10.971429-10.605714h121.417143a10.605714 10.605714 0 0 1 10.971428 10.605714z m85.942857 257.828572v-123.245714a10.971429 10.971429 0 0 1 10.971429-10.971429h121.417143a10.971429 10.971429 0 0 1 10.605714 10.971429v121.417142a10.605714 10.605714 0 0 1-10.605714 10.971429h-121.417143a10.605714 10.605714 0 0 1-10.971429-10.971429z" p-id="9618"></path></svg>