<?xml version="1.0" standalone="no"?><!DOCTYPE svg PUBLIC "-//W3C//DTD SVG 1.1//EN" "http://www.w3.org/Graphics/SVG/1.1/DTD/svg11.dtd"><svg t="1719723757154" class="icon" viewBox="0 0 1024 1024" version="1.1" xmlns="http://www.w3.org/2000/svg" p-id="13638" xmlns:xlink="http://www.w3.org/1999/xlink" width="200" height="200"><path d="M728.699633 386.619504c-9.785308 0-19.370915 0.424363-28.944041 1.248126V71.367844L284.72874 206.976732v-41.387858L741.74255 0l137.293858 116.075716v304.417928c-4.480772-2.046927-8.974026-4.093853-13.654499-6.14078a348.813768 348.813768 0 0 0-136.707238-27.73336z" p-id="13639"></path><path d="M595.037822 258.77396V413.1297l-3.057909 1.248126a352.870178 352.870178 0 0 0-175.623807 162.705703v-307.038991L70.175883 380.678425v641.78638H9.267335l0.212182-674.37495 462.692783-161.707202z" p-id="13640"></path><path d="M353.600332 477.171044l-217.598284 58.125227v-97.89052l217.598284-71.367844v111.133137zM353.600332 656.414417l-217.598284 42.211621v-93.809149l217.598284-55.466719v107.064247zM353.600332 838.515998l-217.598284 20.394378v-91.762222l217.598284-35.484222v106.852066zM353.600332 1020.205697H136.002048v-97.054276l217.598284-15.289544v112.34382zM517.25461 1018.982534h-100.848579v-119.682801a354.08086 354.08086 0 0 0 63.966457 87.48115 343.983521 343.983521 0 0 0 36.882122 32.201651zM769.962678 697.615056l-34.947527-63.2051-34.335946 63.2051A20.581597 20.581597 0 0 1 686.999744 707.687432l-70.257012 13.504723 49.23857 52.883098a20.082347 20.082347 0 0 1 5.167242 15.788794l-9.086357 71.255512L726.939775 830.765135a19.308509 19.308509 0 0 1 16.862183 0l64.4033 29.955024-9.061394-71.255512A20.082347 20.082347 0 0 1 804.323586 773.713297l49.23857-52.883098-69.895055-13.529686a19.970016 19.970016 0 0 1-13.704423-9.685457z" p-id="13641"></path><path d="M734.790488 463.628878C580.147679 463.628878 454.848311 589.040576 454.848311 743.883086s125.299367 280.116914 279.942177 280.116914S1014.732665 898.650708 1014.732665 743.883086 889.433297 463.628878 734.790488 463.628878z m167.648282 252.383555L832.156796 791.811123l12.955548 101.847081a12.031934 12.031934 0 0 1-17.161733 12.244116l-92.960423-43.859148-93.297417 43.871629a12.006972 12.006972 0 0 1-17.199176-12.256597l12.98051-102.53355L567.17965 716.049876a11.982009 11.982009 0 0 1 6.477774-19.970015l100.723766-19.695428 49.92504-89.578002a11.957047 11.957047 0 0 1 21.043404 0l49.925039 90.239508 100.723767 19.033922a11.969528 11.969528 0 0 1 6.502736 19.970015z" p-id="13642"></path></svg>