<?xml version="1.0" standalone="no"?><!DOCTYPE svg PUBLIC "-//W3C//DTD SVG 1.1//EN" "http://www.w3.org/Graphics/SVG/1.1/DTD/svg11.dtd"><svg t="1719723771301" class="icon" viewBox="0 0 1024 1024" version="1.1" xmlns="http://www.w3.org/2000/svg" p-id="14660" xmlns:xlink="http://www.w3.org/1999/xlink" width="200" height="200"><path d="M758.073 618.368c13.91 11.031 36.089 5.388 47.243-11.03 5.515-8.332 5.515-16.67 5.515-24.997-2.761-8.337-8.338-16.423-13.848-22.06-19.424-11.032-38.91-24.757-61.09-33.088 27.758-27.696 49.936-58.09 63.85-93.871 16.666-38.726 24.997-80.145 24.997-124.264C824.74 137.988 685.897 0 513.715 0 341.543 0 205.516 140.682 205.516 311.998c0 82.598 33.334 160.05 91.601 217.887C116.604 612.731 0.001 792.138 0.001 990.908c0 19.363 13.848 33.088 33.334 33.088 19.424 0 33.333-13.725 33.333-33.088 0-185.04 116.602-350.483 288.779-413.959 97.178 57.838 222.178 55.15 316.534 0 30.579 11.026 61.097 24.756 86.092 41.42z m-244.358-66.42c-133.267 0-241.599-107.601-241.599-239.95 0-132.59 108.332-240.19 241.599-240.19 133.272 0 241.603 107.6 241.603 240.19 0 33.093-5.577 66.181-19.425 96.57-11.154 27.453-30.578 52.45-52.757 74.512-44.42 44.113-105.51 68.867-169.421 68.867z m502.62 281.61l-127.75-126.952c-13.848-13.73-38.844-13.73-52.758 0-5.51 5.386-11.092 16.417-11.092 24.749 0 11.025 2.76 19.364 11.092 25.002l66.666 66.175H671.981c-19.418 0-36.081 16.423-36.081 35.781 0 19.363 16.663 36.032 36.081 36.032h230.512l-66.666 66.175c-5.51 5.392-11.092 16.417-11.092 24.756 0 11.025 2.76 19.357 11.092 24.995 5.576 8.091 16.67 11.03 25 11.03 8.332 0 19.425-2.939 24.997-11.03l127.763-126.957c2.753-2.94 5.509-8.332 8.331-11.026 2.755-8.337 2.755-19.362 0-27.7 0-2.693-2.822-8.331-5.583-11.03z m0 0" p-id="14661"></path></svg>